<svg width="32" height="32" viewBox="0 0 32 32" fill="none" xmlns="http://www.w3.org/2000/svg">
  <!-- Background -->
  <rect width="32" height="32" rx="6" fill="#8B4513"/>

  <!-- Simplified wheat stalk -->
  <g transform="translate(16, 16)">
    <!-- Stem -->
    <line x1="0" y1="-10" x2="0" y2="8" stroke="#F59E0B" stroke-width="1.5" stroke-linecap="round"/>

    <!-- Grains - simplified -->
    <ellipse cx="-3" cy="-8" rx="2.5" ry="4" fill="#FCD34D" transform="rotate(-30 -3 -8)"/>
    <ellipse cx="-3.5" cy="-5" rx="2.5" ry="4" fill="#FBBF24" transform="rotate(-35 -3.5 -5)"/>
    <ellipse cx="-4" cy="-2" rx="2.5" ry="4" fill="#F59E0B" transform="rotate(-40 -4 -2)"/>
    <ellipse cx="-3.5" cy="1" rx="2.5" ry="4" fill="#FBBF24" transform="rotate(-35 -3.5 1)"/>

    <ellipse cx="3" cy="-8" rx="2.5" ry="4" fill="#FCD34D" transform="rotate(30 3 -8)"/>
    <ellipse cx="3.5" cy="-5" rx="2.5" ry="4" fill="#FBBF24" transform="rotate(35 3.5 -5)"/>
    <ellipse cx="4" cy="-2" rx="2.5" ry="4" fill="#F59E0B" transform="rotate(40 4 -2)"/>
    <ellipse cx="3.5" cy="1" rx="2.5" ry="4" fill="#FBBF24" transform="rotate(35 3.5 1)"/>

    <!-- Top head -->
    <ellipse cx="0" cy="-10" rx="2" ry="3.5" fill="#FBBF24"/>
  </g>
</svg>
